<svg width="35" height="14" viewBox="0 0 35 14" fill="none" xmlns="http://www.w3.org/2000/svg">
<path d="M17.5 3.12504C15.1667 3.12504 12.9063 3.48962 10.7917 4.17504V8.69587C10.7917 9.26462 10.4563 9.77504 9.975 10.0084C8.54583 10.723 7.24792 11.6417 6.09583 12.7063C5.83333 12.9688 5.46875 13.1146 5.075 13.1146C4.66667 13.1146 4.30208 12.9542 4.03958 12.6917L0.422917 9.07504C0.160417 8.82712 0 8.46254 0 8.05421C0 7.64587 0.160417 7.28129 0.422917 7.01879C4.87083 2.80421 10.8792 0.208374 17.5 0.208374C24.1208 0.208374 30.1292 2.80421 34.5771 7.01879C34.8396 7.28129 35 7.64587 35 8.05421C35 8.46254 34.8396 8.82712 34.5771 9.08962L30.9604 12.7063C30.6979 12.9688 30.3333 13.1292 29.925 13.1292C29.5313 13.1292 29.1667 12.9688 28.9042 12.7209C27.7521 11.6417 26.4396 10.7375 25.0104 10.023C24.5292 9.78962 24.1938 9.29379 24.1938 8.71046V4.18962C22.0938 3.48962 19.8333 3.12504 17.5 3.12504Z" fill="white"/>
</svg>
