
<svg width="272" height="191" viewBox="0 0 273 192" fill="none" xmlns="http://www.w3.org/2000/svg">
<path d="M148.909 48C148.909 21.48 126.697 0 99.2727 0C71.8486 0 49.6364 21.48 49.6364 48C49.6364 74.52 71.8486 96 99.2727 96C126.697 96 148.909 74.52 148.909 48ZM124.091 48C124.091 61.2 112.923 72 99.2727 72C85.6227 72 74.4545 61.2 74.4545 48C74.4545 34.8 85.6227 24 99.2727 24C112.923 24 124.091 34.8 124.091 48ZM0 168V192H198.545V168C198.545 136.08 132.405 120 99.2727 120C66.1405 120 0 136.08 0 168ZM24.8182 168C27.3 159.48 65.7682 144 99.2727 144C132.653 144 170.997 159.36 173.727 168H24.8182ZM235.773 132V96H273V72H235.773V36H210.955V72H173.727V96H210.955V132H235.773Z" fill="#8E44AD"/>
</svg>
