<svg width="272" height="191" viewBox="0 0 273 192" fill="none" xmlns="http://www.w3.org/2000/svg">
<path d="M95.55 120C63.609 120 0 136.046 0 168V192H191.1V168C191.1 136.046 127.491 120 95.55 120ZM31.941 164.571C43.407 156.617 71.1165 147.429 95.55 147.429C119.983 147.429 147.693 156.617 159.159 164.571H31.941ZM95.55 96C121.894 96 143.325 74.4686 143.325 48C143.325 21.5314 121.894 0 95.55 0C69.2055 0 47.775 21.5314 47.775 48C47.775 74.4686 69.2055 96 95.55 96ZM95.55 27.4286C106.879 27.4286 116.025 36.6171 116.025 48C116.025 59.3829 106.879 68.5714 95.55 68.5714C84.2205 68.5714 75.075 59.3829 75.075 48C75.075 36.6171 84.2205 27.4286 95.55 27.4286ZM191.646 120.823C207.48 132.343 218.4 147.703 218.4 168V192H273V168C273 140.297 225.225 124.526 191.646 120.823ZM177.45 96C203.794 96 225.225 74.4686 225.225 48C225.225 21.5314 203.794 0 177.45 0C170.079 0 163.254 1.78286 156.975 4.8C165.574 17.0057 170.625 31.9543 170.625 48C170.625 64.0457 165.574 78.9943 156.975 91.2C163.254 94.2171 170.079 96 177.45 96Z" fill="white"/>
</svg>
