<svg width="27" height="29" viewBox="0 0 27 29" fill="none" xmlns="http://www.w3.org/2000/svg">
<path d="M23.7083 14.0416H21.2292C21.2292 15.1208 20.9958 16.127 20.6021 17.0312L22.3958 18.825C23.2125 17.3958 23.7083 15.777 23.7083 14.0416ZM17.8458 14.2895C17.8458 14.202 17.875 14.1291 17.875 14.0416V5.29163C17.875 2.87079 15.9208 0.916626 13.5 0.916626C11.0792 0.916626 9.125 2.87079 9.125 5.29163V5.55413L17.8458 14.2895ZM2.22708 2.37496L0.375 4.22704L9.13958 12.9916V14.0416C9.13958 16.4625 11.0792 18.4166 13.5 18.4166C13.8208 18.4166 14.1417 18.3729 14.4479 18.3L16.8688 20.7208C15.8333 21.202 14.6813 21.4791 13.5 21.4791C9.475 21.4791 5.77083 18.4166 5.77083 14.0416H3.29167C3.29167 19.0145 7.25833 23.127 12.0417 23.8416V28.625H14.9583V23.8416C16.2854 23.652 17.5396 23.1854 18.6625 22.5291L24.7729 28.625L26.625 26.7729L2.22708 2.37496Z" fill="white"/>
</svg>
