<svg width="22" height="32" viewBox="0 0 26 32" fill="none" xmlns="http://www.w3.org/2000/svg">
<path d="M13 20.2105C16.0829 20.2105 18.5529 17.9537 18.5529 15.1579L18.5714 5.05263C18.5714 2.25684 16.0829 0 13 0C9.91714 0 7.42857 2.25684 7.42857 5.05263V15.1579C7.42857 17.9537 9.91714 20.2105 13 20.2105ZM22.8429 15.1579C22.8429 20.2105 18.1257 23.7474 13 23.7474C7.87429 23.7474 3.15714 20.2105 3.15714 15.1579H0C0 20.9011 5.05143 25.6505 11.1429 26.4758V32H14.8571V26.4758C20.9486 25.6674 26 20.9179 26 15.1579H22.8429Z" fill="white"/>
</svg>
